<svg width="123" height="46" viewBox="0 0 123 46" fill="none" xmlns="http://www.w3.org/2000/svg">
<mask id="mask0_3_176" style="mask-type:luminance" maskUnits="userSpaceOnUse" x="0" y="0" width="123" height="46">
<path d="M122.675 0H0V45.2171H122.675V0Z" fill="white"/>
</mask>
<g mask="url(#mask0_3_176)">
<path d="M-0.00390625 0.670166V23.0961H21.9691V0.670166H-0.00390625ZM15.2064 16.194H6.75879V7.57228H15.2064V16.194Z" fill="black"/>
<path d="M37.1853 7.57153H28.7324V16.1987H37.1853V7.57153Z" fill="black"/>
<path d="M43.9413 0.670166H56.1857C60.6807 0.670166 62.7349 3.72665 62.7349 6.52401C62.7349 8.5381 61.9732 9.83372 59.9421 11.0469C62.5041 12.0127 63.9005 13.7618 63.9005 16.4532C63.9005 19.6745 61.5924 23.0961 56.203 23.0961H43.9355L43.9413 0.670166ZM50.629 18.0432H55.0605C55.3545 18.0694 55.6506 18.0328 55.9299 17.9357C56.2093 17.8385 56.4657 17.6831 56.6829 17.4791C56.9 17.2752 57.0732 17.0274 57.1913 16.7513C57.3093 16.4753 57.3697 16.1772 57.3686 15.876C57.3603 15.6112 57.2989 15.351 57.1884 15.1112C57.078 14.8715 56.9206 14.6574 56.726 14.482C56.5315 14.3066 56.3039 14.1737 56.0572 14.0913C55.8104 14.009 55.5498 13.979 55.2913 14.0033H50.629V18.0432ZM50.629 9.50982H54.1892C55.8164 9.50982 56.4627 8.73834 56.4627 7.60173C56.4714 7.36253 56.4296 7.12423 56.3403 6.90291C56.251 6.68159 56.1162 6.48242 55.945 6.31884C55.7738 6.15527 55.5701 6.0311 55.3479 5.95474C55.1256 5.87838 54.8899 5.85159 54.6566 5.8762H50.6752L50.629 9.50982Z" fill="black"/>
<path d="M70.8742 0.670166H77.9543L86.0326 23.049H78.7448L77.6773 19.6981H70.8742L69.974 23.0314H62.7959L70.8742 0.670166ZM74.1228 7.31904L72.2591 14.7983H76.252L74.1228 7.31904Z" fill="black"/>
<path d="M97.299 7.33105H104.05C104.05 3.52664 101.246 -0.000976562 94.5927 -0.000976562C87.2934 -0.000976562 85.0373 4.12145 85.0373 7.11904C85.0373 11.9658 90.8536 13.2556 91.0325 13.3144C91.898 13.5971 95.5102 14.5806 96.4103 14.9104C97.1951 15.1931 97.9395 15.835 97.9395 16.6772C97.9395 17.9846 96.4103 18.6147 95.1409 18.6147C94.3215 18.6147 91.5749 18.3379 91.5749 15.3698H84.6045C84.6045 19.3096 87.2646 23.7265 94.7197 23.7265C102.954 23.7265 104.673 18.7148 104.673 16.0706C104.658 14.8136 104.268 13.5912 103.554 12.5664C102.841 11.5416 101.838 10.763 100.68 10.3345C99.007 9.64549 96.2257 9.03891 94.8351 8.62667C94.1311 8.41465 91.7884 7.93174 91.7884 6.47123C91.7884 4.60436 94.8062 4.84581 94.3677 4.84581C95.7295 4.83404 97.299 5.6173 97.299 7.33105Z" fill="black"/>
<path d="M105.823 0.665039H122.672V6.58366H112.557V10.5294H121.575V16.183H112.522V23.091H105.788L105.823 0.665039Z" fill="black"/>
<path d="M8.76955 40.8397L8.75801 40.8102L6.652 32.7307H5.33069L3.19582 40.8397H3.10927L3.1035 40.8102L1.23405 32.7307H0.0166016L2.44573 42.4002H3.70934L5.91922 34.2147H6L6.00577 34.2442L8.18102 42.4002H9.4504L11.9834 32.7307H10.789L8.85033 40.8397H8.76955Z" fill="black"/>
<path d="M17.59 36.6172C17.3474 36.2215 17.02 35.8873 16.6323 35.6398C16.1736 35.37 15.6498 35.2373 15.1208 35.257C14.6781 35.2546 14.2398 35.3468 13.8342 35.5279C13.4419 35.7073 13.0918 35.9703 12.8073 36.2992C12.5088 36.6418 12.2812 37.0423 12.1381 37.4769C11.9722 37.9449 11.8901 38.4395 11.8958 38.9371C11.9111 39.4382 11.9907 39.935 12.1323 40.415C12.2527 40.8471 12.4611 41.2484 12.7439 41.5927C13.0245 41.8951 13.3673 42.1304 13.7477 42.2816C14.199 42.4721 14.6844 42.5644 15.1727 42.5524C15.8631 42.5803 16.5429 42.3732 17.1054 41.9636C17.6293 41.5349 17.9772 40.9216 18.0803 40.2443H17.0419C16.967 40.6534 16.7473 41.0202 16.4246 41.2747C16.0688 41.5177 15.6466 41.6393 15.2188 41.6221C14.8783 41.6299 14.54 41.5637 14.2265 41.4278C13.9605 41.3077 13.7241 41.1287 13.5342 40.9037C13.3528 40.6849 13.2174 40.4304 13.1362 40.156C13.053 39.8595 13.016 39.5515 13.0265 39.2433H18.2188C18.2302 38.8045 18.1915 38.3658 18.1034 37.9361C18.0142 37.4751 17.8442 37.0342 17.6015 36.6349M13.0381 38.2894V38.2541C13.0548 37.9878 13.1113 37.7258 13.2054 37.4769C13.2996 37.236 13.4388 37.016 13.615 36.8292C13.7899 36.643 13.9999 36.4947 14.2323 36.3934C14.4887 36.2796 14.7662 36.2234 15.0458 36.2286C15.3197 36.2246 15.5912 36.2808 15.8419 36.3934C16.0759 36.4955 16.2892 36.6413 16.4707 36.8233C16.6497 37.008 16.7926 37.2258 16.8919 37.4651C16.9947 37.718 17.0552 37.9867 17.0707 38.26V38.2953L13.0381 38.2894Z" fill="black"/>
<path d="M26.1929 41.5988C25.8641 41.6064 25.5388 41.5294 25.2468 41.3751C24.993 41.2322 24.7756 41.0305 24.6121 40.7863C24.4427 40.5321 24.3196 40.2489 24.2487 39.9501C24.173 39.634 24.1343 39.3099 24.1333 38.9845C24.1346 38.6342 24.1713 38.2849 24.2429 37.9423C24.3058 37.6255 24.4272 37.3237 24.6006 37.0532C24.777 36.7949 25.0127 36.5846 25.2871 36.4408C25.613 36.276 25.9735 36.1951 26.3371 36.2053C26.7531 36.1891 27.1615 36.3225 27.491 36.5821C27.788 36.8524 27.9905 37.2142 28.0679 37.6126H29.1698C29.1345 37.2513 29.0286 36.9009 28.8583 36.5821C28.6986 36.2914 28.4804 36.0385 28.2179 35.8402C27.9513 35.6342 27.6474 35.4841 27.3237 35.3986C26.966 35.3021 26.5974 35.2545 26.2275 35.2573C25.7416 35.249 25.2595 35.3474 24.8141 35.5458C24.4226 35.7289 24.0773 36.0008 23.8045 36.3407C23.5399 36.6918 23.344 37.0917 23.2275 37.5184C23.0907 37.9965 23.0227 38.4923 23.0256 38.9904C23.0148 39.4742 23.0771 39.9568 23.2102 40.4212C23.3281 40.8531 23.5346 41.2546 23.816 41.5988C24.0909 41.9166 24.4346 42.1646 24.8198 42.3231C25.26 42.5023 25.7306 42.5904 26.2044 42.5821C26.955 42.6242 27.6933 42.3738 28.2698 41.8815C28.7985 41.3628 29.1315 40.6707 29.2102 39.9266H28.1198C28.0768 40.4023 27.8728 40.8478 27.5429 41.1867C27.1712 41.5097 26.6919 41.6742 26.2044 41.6459" fill="black"/>
<path d="M32.6899 35.6341C32.2358 35.9498 31.8715 36.3825 31.6342 36.8882H31.5995V35.4221H30.5957V42.3995H31.6342V39.3024C31.6357 38.8852 31.6881 38.4699 31.7899 38.0658C31.8672 37.7424 32.0107 37.4394 32.2111 37.1767C32.4182 36.9119 32.6912 36.7086 33.0015 36.5879C33.3718 36.4542 33.7625 36.3884 34.1553 36.3936V35.216H34.0745C33.5845 35.1965 33.1001 35.3278 32.6841 35.5928" fill="black"/>
<path d="M39.9641 36.6172C39.719 36.2217 39.3896 35.8876 39.0006 35.6398C38.5419 35.37 38.0181 35.2373 37.4891 35.257C37.0464 35.254 36.608 35.3463 36.2026 35.5279C35.8135 35.7101 35.4658 35.9728 35.1814 36.2992C34.8867 36.6436 34.6613 37.0437 34.518 37.4769C34.3521 37.9449 34.27 38.4395 34.2757 38.9371C34.2892 39.4379 34.3668 39.9348 34.5064 40.415C34.6312 40.8465 34.8413 41.2473 35.1237 41.5927C35.3994 41.9193 35.7448 42.1772 36.1333 42.3463C36.5843 42.5382 37.0699 42.6306 37.5583 42.6172C38.2468 42.6442 38.9246 42.4371 39.4852 42.0284C40.0127 41.6018 40.363 40.9878 40.466 40.309H39.416C39.3457 40.7185 39.1275 41.0862 38.8045 41.3395C38.4481 41.5813 38.0264 41.7029 37.5987 41.6869C37.2581 41.6954 36.9197 41.6292 36.6064 41.4926C36.3386 41.3727 36.1002 41.1937 35.9083 40.9685C35.7266 40.7508 35.5928 40.4958 35.516 40.2207C35.426 39.9035 35.389 39.5731 35.4064 39.2433H40.5987C40.6121 38.8047 40.5754 38.366 40.4891 37.9361C40.3978 37.4748 40.2259 37.034 39.9814 36.6349M35.4237 38.2894V38.2541C35.4359 37.9878 35.4904 37.7253 35.5853 37.4769C35.6795 37.236 35.8186 37.016 35.9949 36.8292C36.1687 36.6417 36.3789 36.4933 36.6122 36.3934C36.8668 36.2802 37.1422 36.224 37.4199 36.2286C37.6939 36.2233 37.9657 36.2796 38.216 36.3934C38.6908 36.5954 39.0682 36.9805 39.266 37.4651C39.3707 37.7176 39.4331 37.9863 39.4506 38.26V38.2953L35.4237 38.2894Z" fill="black"/>
<path d="M47.486 41.3994C47.4487 41.2055 47.4332 41.008 47.4399 40.8106V37.1599C47.4546 36.8192 47.3768 36.4809 47.2149 36.1825C47.0757 35.9386 46.8769 35.7357 46.6379 35.5937C46.3835 35.4529 46.1058 35.3611 45.8187 35.3228C45.1501 35.213 44.4674 35.231 43.8053 35.3758C43.4802 35.449 43.1712 35.5827 42.8937 35.7703C42.631 35.9552 42.4154 36.2015 42.2649 36.4887C42.1011 36.8135 42.0105 37.1716 41.9995 37.5368H43.0668C43.0578 37.3293 43.1026 37.1231 43.1968 36.939C43.2911 36.7549 43.4313 36.5996 43.6033 36.4887C43.9797 36.2861 44.4011 36.1866 44.8264 36.2002C45.0079 36.2022 45.189 36.2159 45.3687 36.2414C45.5464 36.2678 45.7182 36.3256 45.8764 36.4121C46.0328 36.495 46.1629 36.6217 46.2514 36.7772C46.3592 36.9705 46.4112 37.1909 46.4014 37.4131C46.4077 37.5103 46.3929 37.6076 46.358 37.6982C46.3231 37.7888 46.2689 37.8704 46.1995 37.9371C46.0466 38.0666 45.8672 38.1591 45.6745 38.208C45.4304 38.2735 45.1815 38.3188 44.9303 38.3434C44.6533 38.3434 44.3533 38.42 44.0418 38.4847C43.7303 38.5495 43.4649 38.6084 43.1822 38.6908C42.9178 38.7638 42.6679 38.8834 42.4437 39.0441C42.2313 39.1984 42.0558 39.3997 41.9303 39.6329C41.788 39.9313 41.7206 40.2611 41.7341 40.5927C41.7254 40.9005 41.7845 41.2064 41.9072 41.4877C42.0228 41.719 42.1885 41.9204 42.3918 42.0765C42.6073 42.2336 42.85 42.3475 43.1072 42.4121C43.3948 42.4796 43.689 42.5132 43.9841 42.5122C44.4377 42.516 44.888 42.4321 45.311 42.2649C45.731 42.0867 46.1016 41.8056 46.3899 41.4465L46.4533 41.3699V41.47C46.439 41.6137 46.4537 41.7589 46.4963 41.8966C46.539 42.0343 46.6088 42.1616 46.7014 42.2708C46.8871 42.4378 47.1292 42.5244 47.3764 42.5122C47.6474 42.5267 47.9176 42.4699 48.161 42.3473V41.523C48.06 41.5552 47.9552 41.573 47.8495 41.576C47.6475 41.576 47.5322 41.5053 47.4975 41.3581M46.3841 39.945C46.38 40.1302 46.3388 40.3125 46.2629 40.4808C46.1724 40.6852 46.0407 40.8677 45.8764 41.0166C45.6822 41.1919 45.457 41.3278 45.2129 41.417C44.9001 41.5298 44.5697 41.5837 44.238 41.576C44.0655 41.5762 43.8934 41.5584 43.7245 41.523C43.5694 41.4874 43.4212 41.4258 43.286 41.3405C43.1615 41.2526 43.0571 41.138 42.9803 41.0049C42.9003 40.8509 42.8605 40.6786 42.8649 40.5044C42.8548 40.2654 42.9217 40.0297 43.0553 39.8331C43.1888 39.6557 43.3659 39.5176 43.5687 39.4327C43.7943 39.3389 44.0309 39.2755 44.2726 39.2443C44.5149 39.2031 44.7745 39.1678 45.0399 39.1324C45.2843 39.1056 45.527 39.0643 45.7668 39.0088C45.9738 38.9783 46.1711 38.8997 46.3437 38.7791L46.4014 38.732L46.3841 39.945Z" fill="black"/>
<path d="M58.632 36.6172C58.3868 36.2217 58.0575 35.8876 57.6685 35.6398C57.2098 35.37 56.686 35.2373 56.157 35.257C55.7142 35.2533 55.2757 35.3457 54.8705 35.5279C54.4806 35.7086 54.1326 35.9715 53.8493 36.2992C53.5549 36.6448 53.3278 37.0445 53.1801 37.4769C53.019 37.946 52.939 38.4401 52.9435 38.9371C52.958 39.4378 53.0356 39.9345 53.1743 40.415C53.2978 40.847 53.5081 41.2481 53.7916 41.5927C54.0673 41.9193 54.4127 42.1772 54.8012 42.3463C55.2522 42.5382 55.7378 42.6306 56.2262 42.6172C56.9148 42.6451 57.5929 42.4379 58.1531 42.0284C58.6767 41.5984 59.026 40.986 59.1339 40.309H58.0839C58.009 40.7182 57.7893 41.085 57.4666 41.3395C57.1129 41.5824 56.6926 41.704 56.2666 41.6869C55.9268 41.6708 55.5943 41.5804 55.2916 41.4219C55.0238 41.302 54.7854 41.123 54.5935 40.8979C54.4118 40.6802 54.278 40.4251 54.2012 40.1501C54.1095 39.8572 54.0666 39.5507 54.0743 39.2433H59.2666C59.2813 38.8044 59.2426 38.3653 59.1512 37.9361C59.062 37.4751 58.892 37.0342 58.6493 36.6349M54.1147 38.2894V38.2541C54.1241 37.9874 54.1788 37.7245 54.2762 37.4769C54.3705 37.236 54.5096 37.016 54.6858 36.8292C54.854 36.6345 55.0604 36.478 55.2916 36.3699C55.548 36.256 55.8255 36.1998 56.1051 36.205C56.379 36.2011 56.6505 36.2573 56.9012 36.3699C57.1343 36.4706 57.3459 36.6165 57.5243 36.7997C57.7052 36.9828 57.8484 37.2011 57.9454 37.4415C58.0508 37.6939 58.1132 37.9627 58.13 38.2364V38.2718L54.1147 38.2894Z" fill="black"/>
<path d="M67.2583 41.5987C66.9312 41.6071 66.6076 41.53 66.3179 41.375C66.0624 41.2323 65.8431 41.0307 65.6775 40.7862C65.5106 40.5306 65.3877 40.2478 65.314 39.95C65.2397 39.6338 65.2029 39.3096 65.2044 38.9844C65.2035 38.6343 65.2383 38.285 65.3083 37.9422C65.3753 37.6267 65.4964 37.3257 65.666 37.0531C65.8383 36.791 66.0698 36.5749 66.341 36.4231C66.6669 36.2582 67.0274 36.1774 67.3909 36.1875C67.8069 36.1713 68.2153 36.3047 68.5448 36.5644C68.8459 36.8312 69.0494 37.1945 69.1217 37.5948H70.2294C70.1922 37.2331 70.0843 36.8828 69.9121 36.5644C69.7541 36.2742 69.5379 36.0214 69.2775 35.8225C69.0075 35.6186 68.7021 35.4688 68.3775 35.3809C68.0218 35.2847 67.6551 35.2372 67.2871 35.2396C66.7992 35.2308 66.3152 35.3292 65.8679 35.5281C65.4775 35.7129 65.1325 35.9845 64.8583 36.323C64.5937 36.6741 64.3978 37.0739 64.2814 37.5006C64.1465 37.979 64.0804 38.4748 64.0852 38.9726C64.0814 39.4611 64.1495 39.9474 64.2871 40.4152C64.4053 40.8251 64.6013 41.2072 64.864 41.5398C65.1389 41.8576 65.4826 42.1056 65.8679 42.2641C66.3081 42.4429 66.7787 42.5309 67.2525 42.5232C68.0047 42.5644 68.7444 42.3141 69.3236 41.8225C69.8572 41.3152 70.2018 40.6347 70.2986 39.8971H69.214C69.1683 40.372 68.9647 40.8166 68.6371 41.1571C68.266 41.4813 67.7862 41.6459 67.2986 41.6164" fill="black"/>
<path d="M76.8427 35.9696C76.6475 35.7378 76.4 35.5579 76.1214 35.4455C75.7525 35.3065 75.3605 35.2425 74.9675 35.257C74.756 35.2585 74.5453 35.2822 74.3386 35.3277C74.1251 35.3696 73.9176 35.4388 73.7212 35.5338C73.5269 35.627 73.3479 35.7502 73.1903 35.8989C73.0188 36.0451 72.8809 36.2281 72.7864 36.4348H72.7345V32.7307H71.6729V42.4002H72.7345V38.4547C72.7327 38.153 72.7775 37.8529 72.8672 37.5655C72.9455 37.3011 73.0772 37.0563 73.2538 36.847C73.4322 36.6415 73.6529 36.4786 73.9 36.37C74.1929 36.2564 74.5042 36.2005 74.8175 36.2051C75.0104 36.1951 75.2034 36.2248 75.3848 36.2926C75.5662 36.3604 75.7324 36.4648 75.8733 36.5997C76.006 36.7408 76.1087 36.9082 76.1753 37.0916C76.2418 37.275 76.2706 37.4704 76.2599 37.6656V42.3767H77.3274V37.801C77.3297 37.4521 77.2909 37.1041 77.212 36.7646C77.1461 36.4723 77.0137 36.1999 76.8254 35.9696" fill="black"/>
<path d="M84.4708 36.6172C84.2257 36.2217 83.8964 35.8876 83.5074 35.6398C83.0487 35.37 82.5249 35.2373 81.9958 35.257C81.5512 35.2539 81.111 35.3462 80.7035 35.5279C80.3162 35.7102 79.9704 35.9729 79.6882 36.2992C79.3938 36.6448 79.1667 37.0445 79.0189 37.4769C78.8578 37.946 78.7778 38.4401 78.7824 38.9371C78.7964 39.4379 78.874 39.9346 79.0132 40.415C79.1379 40.8465 79.348 41.2473 79.6305 41.5927C79.9061 41.9193 80.2515 42.1772 80.6401 42.3463C81.0892 42.5374 81.5728 42.6297 82.0593 42.6172C82.7497 42.6451 83.4296 42.438 83.992 42.0284C84.5156 41.5984 84.8649 40.986 84.9727 40.309H83.9227C83.8479 40.7182 83.6281 41.085 83.3054 41.3395C82.95 41.5832 82.5276 41.7049 82.0997 41.6869C81.761 41.6948 81.4246 41.6285 81.1132 41.4926C80.8446 41.3741 80.6059 41.1949 80.4151 40.9685C80.2333 40.7508 80.0995 40.4958 80.0228 40.2207C79.9389 39.9325 79.9018 39.6321 79.9132 39.3316V39.2433H85.1054C85.1202 38.8044 85.0814 38.3653 84.99 37.9361C84.9009 37.4751 84.7308 37.0342 84.4881 36.6349M79.9247 38.2894V38.2541C79.9396 37.9864 80.0002 37.7234 80.1036 37.4769C80.1958 37.2363 80.333 37.0164 80.5074 36.8292C80.6949 36.638 80.9182 36.4873 81.164 36.3861C81.4099 36.285 81.6731 36.2354 81.9381 36.2404C82.2122 36.2351 82.484 36.2914 82.7343 36.4052C83.2091 36.6071 83.5865 36.9923 83.7843 37.4769C83.889 37.7294 83.9514 37.9981 83.9689 38.2718V38.3071L79.9247 38.2894Z" fill="black"/>
<path d="M95.459 35.7115C95.2476 35.5458 95.0065 35.4237 94.7493 35.3523C94.4434 35.2761 94.1294 35.2385 93.8145 35.2404C93.3856 35.2368 92.9628 35.3442 92.5856 35.5525C92.2146 35.7578 91.9023 36.0582 91.6797 36.424L91.6393 36.4888V36.4182C91.5858 36.2257 91.4949 36.0462 91.372 35.8904C91.249 35.7346 91.0966 35.6057 90.9238 35.5113C90.5663 35.327 90.1703 35.2341 89.7698 35.2404C89.3279 35.2223 88.889 35.3212 88.4956 35.5276C88.1023 35.734 87.768 36.0408 87.5254 36.4182H87.485V35.4229H86.4521V42.4012H87.5138V38.067C87.5209 37.8897 87.556 37.7147 87.6177 37.5488C87.7773 37.0776 88.102 36.6833 88.5293 36.4417C88.7965 36.2943 89.097 36.2211 89.4006 36.2297C89.6223 36.2217 89.843 36.2639 90.0468 36.3534C90.2122 36.4227 90.3544 36.5393 90.4565 36.689C90.5621 36.8426 90.6348 37.0172 90.67 37.2014C90.7128 37.4105 90.7341 37.6237 90.7334 37.8374V42.4248H91.7951V38.067C91.7851 37.823 91.8234 37.5793 91.9077 37.3507C91.9919 37.122 92.1204 36.913 92.2855 36.7362C92.4655 36.5633 92.6779 36.4293 92.91 36.3423C93.142 36.2552 93.3888 36.217 93.6357 36.2297C93.873 36.2198 94.1096 36.2641 94.3281 36.3593C94.4973 36.433 94.6432 36.5533 94.7493 36.7067C94.8575 36.8582 94.9287 37.0338 94.957 37.219C94.9908 37.4135 95.0081 37.6105 95.0089 37.8079V42.3954H96.0764V37.2662C96.0832 36.9514 96.0262 36.6387 95.909 36.3475C95.8071 36.1158 95.6505 35.9134 95.4532 35.7586" fill="black"/>
<path d="M99.008 34.0793H97.9463V32.7307H99.008V34.0793ZM99.008 35.4219H97.9463V42.4002H99.008V35.4219Z" fill="black"/>
<path d="M105.366 42.0933C105.639 41.9277 105.868 41.6975 106.035 41.4221C106.219 41.1077 106.309 40.7456 106.295 40.3799C106.305 40.0908 106.239 39.8044 106.105 39.5496C105.979 39.332 105.81 39.1435 105.608 38.9962C105.395 38.8498 105.161 38.7348 104.916 38.6547C104.644 38.5603 104.366 38.4816 104.085 38.4191L103.283 38.2366C103.036 38.1829 102.793 38.1101 102.557 38.0187C102.357 37.9419 102.173 37.8281 102.014 37.6831C101.888 37.5532 101.812 37.3819 101.798 37.1996C101.784 37.0174 101.834 36.8361 101.939 36.688C102.036 36.5674 102.158 36.4708 102.297 36.4054C102.451 36.3336 102.614 36.284 102.782 36.2582C103.14 36.1873 103.508 36.1873 103.866 36.2582C104.046 36.2991 104.219 36.3666 104.38 36.4584C104.534 36.5517 104.665 36.6783 104.766 36.8293C104.868 36.9962 104.928 37.1865 104.939 37.3828H106.007C105.992 37.0284 105.903 36.6812 105.747 36.3642C105.612 36.0969 105.414 35.8682 105.17 35.6988C104.907 35.5282 104.616 35.4085 104.31 35.3455C103.955 35.2771 103.593 35.2436 103.232 35.2454C102.927 35.2485 102.623 35.286 102.326 35.3573C102.019 35.4289 101.726 35.5481 101.455 35.7106C101.221 35.86 101.024 36.0613 100.878 36.2994C100.72 36.5696 100.64 36.8799 100.647 37.1944C100.625 37.5697 100.742 37.9397 100.976 38.2307C101.2 38.4899 101.48 38.6916 101.795 38.8195C102.146 38.9635 102.509 39.0739 102.88 39.1493C103.247 39.2157 103.611 39.3022 103.97 39.4083C104.271 39.4866 104.557 39.6138 104.818 39.7852C104.931 39.8634 105.023 39.97 105.085 40.0947C105.146 40.2194 105.176 40.3581 105.17 40.4976C105.184 40.7088 105.122 40.9179 104.997 41.0864C104.889 41.234 104.743 41.3481 104.576 41.4162C104.392 41.4953 104.197 41.5469 103.999 41.5693C103.585 41.6437 103.161 41.6437 102.747 41.5693C102.542 41.53 102.347 41.4522 102.17 41.3396C101.991 41.2361 101.84 41.0883 101.732 40.9098C101.624 40.7153 101.562 40.4973 101.553 40.2739H100.491C100.502 40.6421 100.591 41.0035 100.751 41.3337C100.902 41.6241 101.119 41.8727 101.385 42.058C101.66 42.248 101.967 42.382 102.291 42.4525C102.995 42.6034 103.722 42.6034 104.426 42.4525C104.755 42.3891 105.072 42.2676 105.36 42.0933" fill="black"/>
<path d="M109.178 33.3079H108.116V35.422H106.962V36.3701H108.116V40.8986C108.107 41.161 108.138 41.4233 108.208 41.6759C108.252 41.851 108.349 42.0075 108.485 42.1235C108.628 42.2374 108.797 42.3124 108.976 42.3414C109.223 42.3852 109.474 42.405 109.726 42.4003H110.557V41.4522H110.072C109.893 41.4522 109.743 41.4522 109.633 41.4522C109.535 41.4436 109.44 41.4113 109.356 41.3579C109.286 41.3061 109.235 41.2313 109.212 41.1459C109.186 41.0341 109.175 40.9193 109.178 40.8044V36.3877H110.597V35.422H109.178V33.3079Z" fill="black"/>
<path d="M50.78 33.3079H49.7126V35.422H48.5586V36.3701H49.7126V40.8986C49.7067 41.1609 49.7378 41.4227 49.8049 41.6759C49.8537 41.8489 49.9498 42.0042 50.0818 42.1235C50.2252 42.2363 50.3937 42.3112 50.5723 42.3414C50.82 42.3848 51.0711 42.4045 51.3224 42.4003H52.1532V41.4522H51.6686C51.4897 41.4522 51.3455 41.4522 51.2301 41.4522C51.1322 41.4416 51.0377 41.4094 50.9531 41.3579C50.8842 41.3058 50.8353 41.2309 50.8146 41.1459C50.7889 41.0341 50.7772 40.9193 50.78 40.8044V36.3877H52.1994V35.422H50.78V33.3079Z" fill="black"/>
<path d="M113.241 36.9708H113.201V35.4222H112.191V42.3997H113.259V39.385C113.254 38.9747 113.299 38.5654 113.391 38.1661C113.471 37.835 113.621 37.5256 113.83 37.2593C114.037 36.9945 114.31 36.7912 114.62 36.6705C114.99 36.536 115.381 36.4702 115.774 36.4762V35.2986C115.259 35.2687 114.748 35.4002 114.309 35.6754C113.858 35.9934 113.496 36.4256 113.259 36.9296" fill="black"/>
<path d="M119.274 44.2267C119.422 43.9446 119.553 43.6536 119.666 43.3552L122.655 35.4229H121.501L119.562 41.1939H119.481L117.468 35.4464H116.268L118.991 42.4247L118.524 43.6025C118.434 43.7959 118.302 43.9652 118.137 44.0971C117.968 44.2158 117.765 44.2756 117.56 44.2679C117.44 44.2685 117.321 44.2486 117.208 44.209L116.925 44.1148V45.1336C117.041 45.1756 117.161 45.2033 117.283 45.216C117.416 45.2248 117.549 45.2248 117.681 45.216C117.904 45.2199 118.127 45.1861 118.339 45.1159C118.525 45.0438 118.695 44.9359 118.841 44.7979C119.009 44.6237 119.151 44.4253 119.262 44.209" fill="black"/>
</g>
</svg>
